<?xml version="1.0" encoding="UTF-8"?>
<svg width="838px" height="103px" viewBox="0 0 838 103" version="1.1" xmlns="http://www.w3.org/2000/svg" xmlns:xlink="http://www.w3.org/1999/xlink">
    <g id="RailsGirlsSydney-logo" stroke="none" stroke-width="1" fill="none" fill-rule="evenodd">
        <g id="Desktop" transform="translate(-90.000000, -460.000000)" fill="#FFFFFF" fill-rule="nonzero">
            <g id="Group" transform="translate(62.000000, 425.000000)">
                <g id="Group-2" transform="translate(28.000000, 35.000000)">
                    <g id="Group-3">
                        <g id="white-heart-shape">
                            <rect id="Rectangle" x="17" y="0" width="35" height="17"></rect>
                            <rect id="Rectangle" x="52" y="17" width="17" height="17"></rect>
                            <rect id="Rectangle" x="69" y="0" width="35" height="17"></rect>
                            <rect id="Rectangle" x="104" y="17" width="17" height="34"></rect>
                            <rect id="Rectangle" x="0" y="17" width="17" height="34"></rect>
                            <rect id="Rectangle" x="87" y="52" width="17" height="17"></rect>
                            <rect id="Rectangle" x="52" y="86" width="17" height="17"></rect>
                            <rect id="Rectangle" x="69" y="69" width="17" height="17"></rect>
                            <rect id="Rectangle" x="17" y="52" width="17" height="17"></rect>
                            <rect id="Rectangle" x="35" y="69" width="17" height="17"></rect>
                        </g>
                        <path d="M182.576,20.872 C185.488015,20.872 188.147988,21.2499962 190.556,22.006 C192.964012,22.7620038 195.035991,23.8819926 196.772,25.366 C198.508009,26.8500074 199.837995,28.7119888 200.762,30.952 C201.686005,33.1920112 202.148,35.7959852 202.148,38.764 C202.148,43.4120232 201.056011,47.135986 198.872,49.936 C196.687989,52.736014 193.720019,54.6679947 189.968,55.732 L204.92,79 L195.176,79 L181.232,56.656 L167.372,56.656 L167.372,79 L158.804,79 L158.804,20.872 L182.576,20.872 Z M167.372,49.264 L182.744,49.264 C186.104017,49.264 188.81999,48.4240084 190.892,46.744 C192.96401,45.0639916 194,42.4600176 194,38.932 C194,35.4039824 192.96401,32.8140083 190.892,31.162 C188.81999,29.5099917 186.104017,28.684 182.744,28.684 L167.372,28.684 L167.372,49.264 Z M213.32,38.176 C214.944008,36.9439938 217.071987,35.8520048 219.704,34.9 C222.336013,33.9479952 225.499982,33.472 229.196,33.472 C231.716013,33.472 234.025989,33.7659971 236.126,34.354 C238.226011,34.9420029 240.045992,35.9079933 241.586,37.252 C243.126008,38.5960067 244.315996,40.3739889 245.156,42.586 C245.996004,44.7980111 246.416,47.5279838 246.416,50.776 L246.416,79 L239.024,79 L239.024,75.808 C235.215981,78.3280126 230.848025,79.588 225.92,79.588 C223.679989,79.588 221.59401,79.3080028 219.662,78.748 C217.72999,78.1879972 216.050007,77.3200059 214.622,76.144 C213.193993,74.9679941 212.060004,73.484009 211.22,71.692 C210.379996,69.899991 209.96,67.7720123 209.96,65.308 C209.96,62.899988 210.379996,60.7580094 211.22,58.882 C212.060004,57.0059906 213.235992,55.4520062 214.748,54.22 C216.260008,52.9879938 218.05199,52.0500032 220.124,51.406 C222.19601,50.7619968 224.463988,50.44 226.928,50.44 C228.88801,50.44 230.87599,50.635998 232.892,51.028 C234.90801,51.420002 236.811991,52.0079961 238.604,52.792 L238.604,51.28 C238.604,49.3199902 238.366002,47.6820066 237.89,46.366 C237.413998,45.0499934 236.728004,44.0000039 235.832,43.216 C234.935996,42.4319961 233.844006,41.8720017 232.556,41.536 C231.267994,41.1999983 229.840008,41.032 228.272,41.032 C225.919988,41.032 223.77801,41.3399969 221.846,41.956 C219.91399,42.5720031 218.136008,43.4399944 216.512,44.56 L213.32,38.176 Z M227.684,72.952 C229.476009,72.952 231.33799,72.7280022 233.27,72.28 C235.20201,71.8319978 236.979992,71.1880042 238.604,70.348 L238.604,58 C237.091992,57.4399972 235.482009,57.0200014 233.774,56.74 C232.065991,56.4599986 230.428008,56.32 228.86,56.32 C225.667984,56.32 222.980011,57.0059931 220.796,58.378 C218.611989,59.7500069 217.52,61.9199852 217.52,64.888 C217.52,66.3440073 217.785997,67.575995 218.318,68.584 C218.850003,69.592005 219.577995,70.4179968 220.502,71.062 C221.426005,71.7060032 222.503994,72.1819985 223.736,72.49 C224.968006,72.7980015 226.283993,72.952 227.684,72.952 Z M266.828,34.564 L266.828,79 L258.848,79 L258.848,34.564 L266.828,34.564 Z M262.796,17.596 C264.140007,17.596 265.245996,18.0299957 266.114,18.898 C266.982004,19.7660043 267.416,20.9279927 267.416,22.384 C267.416,23.784007 266.982004,24.9319955 266.114,25.828 C265.245996,26.7240045 264.140007,27.172 262.796,27.172 C261.451993,27.172 260.360004,26.7240045 259.52,25.828 C258.679996,24.9319955 258.26,23.784007 258.26,22.384 C258.26,20.9279927 258.679996,19.7660043 259.52,18.898 C260.360004,18.0299957 261.451993,17.596 262.796,17.596 Z M287.576,16.924 L287.576,79 L279.596,79 L279.596,19.612 L287.576,16.924 Z M327.896,46.24 C326.439993,44.6719922 324.522012,43.3420055 322.142,42.25 C319.761988,41.1579945 317.144014,40.612 314.288,40.612 C311.431986,40.612 309.332007,41.1439947 307.988,42.208 C306.643993,43.2720053 305.972,44.5599924 305.972,46.072 C305.972,47.1920056 306.307997,48.1159964 306.98,48.844 C307.652003,49.5720036 308.575994,50.1879975 309.752,50.692 C310.760005,51.1400022 311.893994,51.5319983 313.154,51.868 C314.414006,52.2040017 315.715993,52.567998 317.06,52.96 C318.404007,53.352002 319.775993,53.7719978 321.176,54.22 C322.576007,54.6680022 323.891994,55.1999969 325.124,55.816 C327.420011,56.9360056 329.113995,58.293992 330.206,59.89 C331.298005,61.486008 331.844,63.5719871 331.844,66.148 C331.844,68.7800132 331.340005,70.9779912 330.332,72.742 C329.323995,74.5060088 327.980008,75.9339945 326.3,77.026 C324.619992,78.1180055 322.716011,78.9019976 320.588,79.378 C318.459989,79.8540024 316.304011,80.092 314.12,80.092 C312.10399,80.092 310.186009,79.9240017 308.366,79.588 C306.545991,79.2519983 304.880008,78.7900029 303.368,78.202 C301.855992,77.6139971 300.498006,76.9420038 299.294,76.186 C298.089994,75.4299962 297.068004,74.6320042 296.228,73.792 L299.336,67.072 C300.960008,68.5840076 303.059987,69.8999944 305.636,71.02 C308.212013,72.1400056 311.011985,72.7 314.036,72.7 C316.892014,72.7 319.257991,72.1400056 321.134,71.02 C323.010009,69.8999944 323.948,68.2760106 323.948,66.148 C323.948,64.9159938 323.570004,63.9080039 322.814,63.124 C322.057996,62.3399961 320.840008,61.6120034 319.16,60.94 C317.983994,60.4359975 316.724007,59.988002 315.38,59.596 C314.035993,59.203998 312.706007,58.8260018 311.39,58.462 C310.073993,58.0979982 308.814006,57.720002 307.61,57.328 C306.405994,56.935998 305.328005,56.5160022 304.376,56.068 C302.47199,55.1159952 300.946006,53.8560078 299.798,52.288 C298.649994,50.7199922 298.076,48.7040123 298.076,46.24 C298.076,44.2239899 298.495996,42.418008 299.336,40.822 C300.176004,39.225992 301.323993,37.8820055 302.78,36.79 C304.236007,35.6979945 305.98599,34.8720028 308.03,34.312 C310.07401,33.7519972 312.271988,33.472 314.624,33.472 C318.432019,33.472 321.707986,34.0879938 324.452,35.32 C327.196014,36.5520062 329.323992,37.8959927 330.836,39.352 L327.896,46.24 Z M410.384,48.004 L410.384,54.808 C410.384,58.616019 409.866005,62.0599846 408.83,65.14 C407.793995,68.2200154 406.29601,70.8799888 404.336,73.12 C402.37599,75.3600112 399.954014,77.081994 397.07,78.286 C394.185986,79.490006 390.896018,80.092 387.2,80.092 C383.447981,80.092 379.990016,79.4480064 376.826,78.16 C373.661984,76.8719936 370.918012,74.9680126 368.594,72.448 C366.269988,69.9279874 364.464006,66.8060186 363.176,63.082 C361.887994,59.3579814 361.244,55.0320246 361.244,50.104 C361.244,45.1759754 361.901993,40.8220189 363.218,37.042 C364.534007,33.2619811 366.339989,30.0980127 368.636,27.55 C370.932011,25.0019873 373.675984,23.0700066 376.868,21.754 C380.060016,20.4379934 383.531981,19.78 387.284,19.78 C392.604027,19.78 396.999983,20.983988 400.472,23.392 C403.944017,25.800012 406.603991,28.8799812 408.452,32.632 L402.236,37.336 C400.611992,34.3119849 398.610012,31.9600084 396.23,30.28 C393.849988,28.5999916 390.840018,27.76 387.2,27.76 C381.991974,27.76 377.792016,29.6359812 374.6,33.388 C371.407984,37.1400188 369.812,42.6839633 369.812,50.02 C369.812,57.3560367 371.407984,62.8859814 374.6,66.61 C377.792016,70.3340186 381.991974,72.196 387.2,72.196 C391.568022,72.196 395.123986,70.796014 397.868,67.996 C400.612014,65.195986 402.039999,60.996028 402.152,55.396 L388.964,55.396 L388.964,48.004 L410.384,48.004 Z M429.536,34.564 L429.536,79 L421.556,79 L421.556,34.564 L429.536,34.564 Z M425.504,17.596 C426.848007,17.596 427.953996,18.0299957 428.822,18.898 C429.690004,19.7660043 430.124,20.9279927 430.124,22.384 C430.124,23.784007 429.690004,24.9319955 428.822,25.828 C427.953996,26.7240045 426.848007,27.172 425.504,27.172 C424.159993,27.172 423.068004,26.7240045 422.228,25.828 C421.387996,24.9319955 420.968,23.784007 420.968,22.384 C420.968,20.9279927 421.387996,19.7660043 422.228,18.898 C423.068004,18.0299957 424.159993,17.596 425.504,17.596 Z M467.504,43.216 C466.719996,42.4319961 465.796005,41.8720017 464.732,41.536 C463.667995,41.1999983 462.464007,41.032 461.12,41.032 C458.823989,41.032 456.766009,41.5779945 454.946,42.67 C453.125991,43.7620055 451.572006,45.8759843 450.284,49.012 L450.284,79 L442.304,79 L442.304,34.564 L449.864,34.564 L449.864,39.94 C453.056016,35.6279784 457.311973,33.472 462.632,33.472 C464.59201,33.472 466.187994,33.7379973 467.42,34.27 C468.652006,34.8020027 469.659996,35.4319964 470.444,36.16 L467.504,43.216 Z M486.32,16.924 L486.32,79 L478.34,79 L478.34,19.612 L486.32,16.924 Z M526.64,46.24 C525.183993,44.6719922 523.266012,43.3420055 520.886,42.25 C518.505988,41.1579945 515.888014,40.612 513.032,40.612 C510.175986,40.612 508.076007,41.1439947 506.732,42.208 C505.387993,43.2720053 504.716,44.5599924 504.716,46.072 C504.716,47.1920056 505.051997,48.1159964 505.724,48.844 C506.396003,49.5720036 507.319994,50.1879975 508.496,50.692 C509.504005,51.1400022 510.637994,51.5319983 511.898,51.868 C513.158006,52.2040017 514.459993,52.567998 515.804,52.96 C517.148007,53.352002 518.519993,53.7719978 519.92,54.22 C521.320007,54.6680022 522.635994,55.1999969 523.868,55.816 C526.164011,56.9360056 527.857995,58.293992 528.95,59.89 C530.042005,61.486008 530.588,63.5719871 530.588,66.148 C530.588,68.7800132 530.084005,70.9779912 529.076,72.742 C528.067995,74.5060088 526.724008,75.9339945 525.044,77.026 C523.363992,78.1180055 521.460011,78.9019976 519.332,79.378 C517.203989,79.8540024 515.048011,80.092 512.864,80.092 C510.84799,80.092 508.930009,79.9240017 507.11,79.588 C505.289991,79.2519983 503.624008,78.7900029 502.112,78.202 C500.599992,77.6139971 499.242006,76.9420038 498.038,76.186 C496.833994,75.4299962 495.812004,74.6320042 494.972,73.792 L498.08,67.072 C499.704008,68.5840076 501.803987,69.8999944 504.38,71.02 C506.956013,72.1400056 509.755985,72.7 512.78,72.7 C515.636014,72.7 518.001991,72.1400056 519.878,71.02 C521.754009,69.8999944 522.692,68.2760106 522.692,66.148 C522.692,64.9159938 522.314004,63.9080039 521.558,63.124 C520.801996,62.3399961 519.584008,61.6120034 517.904,60.94 C516.727994,60.4359975 515.468007,59.988002 514.124,59.596 C512.779993,59.203998 511.450007,58.8260018 510.134,58.462 C508.817993,58.0979982 507.558006,57.720002 506.354,57.328 C505.149994,56.935998 504.072005,56.5160022 503.12,56.068 C501.21599,55.1159952 499.690006,53.8560078 498.542,52.288 C497.393994,50.7199922 496.82,48.7040123 496.82,46.24 C496.82,44.2239899 497.239996,42.418008 498.08,40.822 C498.920004,39.225992 500.067993,37.8820055 501.524,36.79 C502.980007,35.6979945 504.72999,34.8720028 506.774,34.312 C508.81801,33.7519972 511.015988,33.472 513.368,33.472 C517.176019,33.472 520.451986,34.0879938 523.196,35.32 C525.940014,36.5520062 528.067992,37.8959927 529.58,39.352 L526.64,46.24 Z M563.684,63.964 C565.70001,66.372012 568.233985,68.3319924 571.286,69.844 C574.338015,71.3560076 577.963979,72.112 582.164,72.112 C586.532022,72.112 590.031987,71.2440087 592.664,69.508 C595.296013,67.7719913 596.612,65.2800162 596.612,62.032 C596.612,59.8479891 596.024006,58.1960056 594.848,57.076 C593.671994,55.9559944 592.160009,55.0600034 590.312,54.388 C588.967993,53.8839975 587.498008,53.4500018 585.902,53.086 C584.305992,52.7219982 582.682008,52.3580018 581.03,51.994 C579.377992,51.6299982 577.712008,51.2380021 576.032,50.818 C574.351992,50.3979979 572.728008,49.8800031 571.16,49.264 C568.079985,48.0319938 565.658009,46.4220099 563.894,44.434 C562.129991,42.4459901 561.248,39.7720168 561.248,36.412 C561.248,34.0599882 561.709995,31.9040098 562.634,29.944 C563.558005,27.9839902 564.901991,26.2900071 566.666,24.862 C568.430009,23.4339929 570.613987,22.3140041 573.218,21.502 C575.822013,20.6899959 578.775983,20.284 582.08,20.284 C584.880014,20.284 587.399989,20.5499973 589.64,21.082 C591.880011,21.6140027 593.881991,22.3279955 595.646,23.224 C597.410009,24.1200045 598.949993,25.1139945 600.266,26.206 C601.582007,27.2980055 602.659996,28.4039944 603.5,29.524 L597.536,34.816 C595.855992,32.9119905 593.728013,31.3020066 591.152,29.986 C588.575987,28.6699934 585.440018,28.012 581.744,28.012 C577.935981,28.012 574.940011,28.7399927 572.756,30.196 C570.571989,31.6520073 569.48,33.6119877 569.48,36.076 C569.48,37.9240092 570.039994,39.3379951 571.16,40.318 C572.280006,41.2980049 573.567993,42.0959969 575.024,42.712 C576.368007,43.2160025 577.837992,43.6499982 579.434,44.014 C581.030008,44.3780018 582.667992,44.7279983 584.348,45.064 C586.028008,45.4000017 587.721991,45.7779979 589.43,46.198 C591.138009,46.6180021 592.803992,47.1359969 594.428,47.752 C595.828007,48.3120028 597.157994,48.9699962 598.418,49.726 C599.678006,50.4820038 600.783995,51.4339943 601.736,52.582 C602.688005,53.7300057 603.457997,55.0599924 604.046,56.572 C604.634003,58.0840076 604.928,59.8759896 604.928,61.948 C604.928,64.9160148 604.340006,67.5059889 603.164,69.718 C601.987994,71.9300111 600.350011,73.7639927 598.25,75.22 C596.149989,76.6760073 593.686014,77.7819962 590.858,78.538 C588.029986,79.2940038 584.964017,79.672 581.66,79.672 C575.835971,79.672 570.89402,78.6640101 566.834,76.648 C562.77398,74.6319899 559.596011,72.1400148 557.3,69.172 L563.684,63.964 Z M617.444,34.564 L630.128,68.332 L643.736,34.564 L651.8,34.564 L627.608,94.624 L619.544,94.624 L626.264,77.908 L609.212,34.564 L617.444,34.564 Z M693.128,16.924 L693.128,79 L685.652,79 L685.652,73.288 C684.195993,75.2480098 682.348011,76.8719936 680.108,78.16 C677.867989,79.4480064 675.208015,80.092 672.128,80.092 C669.047985,80.092 666.444011,79.4200067 664.316,78.076 C662.187989,76.7319933 660.452007,74.9680109 659.108,72.784 C657.763993,70.5999891 656.798003,68.108014 656.21,65.308 C655.621997,62.507986 655.328,59.6800143 655.328,56.824 C655.328,53.9679857 655.621997,51.140014 656.21,48.34 C656.798003,45.539986 657.763993,43.0340111 659.108,40.822 C660.452007,38.6099889 662.187989,36.8320067 664.316,35.488 C666.444011,34.1439933 669.047985,33.472 672.128,33.472 C675.040015,33.472 677.573989,34.0599941 679.73,35.236 C681.886011,36.4120059 683.691993,37.895991 685.148,39.688 L685.148,19.612 L693.128,16.924 Z M674.144,72.7 C676.776013,72.7 678.973991,72.0420066 680.738,70.726 C682.502009,69.4099934 683.971994,67.6880106 685.148,65.56 L685.148,48.004 C683.971994,45.9319896 682.502009,44.2100069 680.738,42.838 C678.973991,41.4659931 676.748013,40.78 674.06,40.78 C671.931989,40.78 670.168007,41.2279955 668.768,42.124 C667.367993,43.0200045 666.220004,44.2099926 665.324,45.694 C664.427996,47.1780074 663.798002,48.8859903 663.434,50.818 C663.069998,52.7500097 662.888,54.7519896 662.888,56.824 C662.888,58.8960104 663.069998,60.8839905 663.434,62.788 C663.798002,64.6920095 664.427996,66.3859926 665.324,67.87 C666.220004,69.3540074 667.381993,70.5299957 668.81,71.398 C670.238007,72.2660043 672.015989,72.7 674.144,72.7 Z M713.456,34.564 L713.456,40.024 C716.816017,35.6559782 721.49197,33.472 727.484,33.472 C729.724011,33.472 731.781991,33.7939968 733.658,34.438 C735.534009,35.0820032 737.143993,36.103993 738.488,37.504 C739.832007,38.904007 740.867996,40.7099889 741.596,42.922 C742.324004,45.1340111 742.688,47.7799846 742.688,50.86 L742.688,79 L734.708,79 L734.708,51.7 C734.708,47.8359807 733.826009,45.0920081 732.062,43.468 C730.297991,41.8439919 727.932015,41.032 724.964,41.032 C722.611988,41.032 720.48401,41.5919944 718.58,42.712 C716.67599,43.8320056 715.108006,45.8759852 713.876,48.844 L713.876,79 L705.896,79 L705.896,34.564 L713.456,34.564 Z M761,59.512 C761.224001,61.8080115 761.699996,63.7959916 762.428,65.476 C763.156004,67.1560084 764.065995,68.5419945 765.158,69.634 C766.250005,70.7260055 767.481993,71.5379973 768.854,72.07 C770.226007,72.6020027 771.639993,72.868 773.096,72.868 C775.280011,72.868 777.197992,72.364005 778.85,71.356 C780.502008,70.347995 781.831995,69.1160073 782.84,67.66 L788.132,72.28 C787.515997,73.1200042 786.746005,74.0019954 785.822,74.926 C784.897995,75.8500046 783.806006,76.6899962 782.546,77.446 C781.285994,78.2020038 779.844008,78.8319975 778.22,79.336 C776.595992,79.8400025 774.77601,80.092 772.76,80.092 C770.127987,80.092 767.636012,79.6020049 765.284,78.622 C762.931988,77.6419951 760.888009,76.1720098 759.152,74.212 C757.415991,72.2519902 756.044005,69.8020147 755.036,66.862 C754.027995,63.9219853 753.524,60.4920196 753.524,56.572 C753.524,52.8759815 753.985995,49.5860144 754.91,46.702 C755.834005,43.8179856 757.121992,41.3960098 758.774,39.436 C760.426008,37.4759902 762.399989,35.992005 764.696,34.984 C766.992011,33.975995 769.511986,33.472 772.256,33.472 C775.000014,33.472 777.519989,33.975995 779.816,34.984 C782.112011,35.992005 784.099992,37.4759902 785.78,39.436 C787.460008,41.3960098 788.761995,43.8179856 789.686,46.702 C790.610005,49.5860144 791.072,52.8759815 791.072,56.572 C791.072,57.1320028 791.058,57.6499976 791.03,58.126 C791.002,58.6020024 790.96,59.0639978 790.904,59.512 L761,59.512 Z M772.34,40.696 C769.259985,40.696 766.71201,41.8019889 764.696,44.014 C762.67999,46.2260111 761.448002,49.4039793 761,53.548 L783.596,53.548 C783.147998,49.2919787 781.91601,46.0860108 779.9,43.93 C777.88399,41.7739892 775.364015,40.696 772.34,40.696 Z M802.832,34.564 L815.516,68.332 L829.124,34.564 L837.188,34.564 L812.996,94.624 L804.932,94.624 L811.652,77.908 L794.6,34.564 L802.832,34.564 Z" id="RailsGirlsSydney"></path>
                    </g>
                </g>
            </g>
        </g>
    </g>
</svg>