<?xml version="1.0" encoding="UTF-8"?>
<svg width="260px" height="32px" viewBox="0 0 260 32" version="1.1" xmlns="http://www.w3.org/2000/svg" xmlns:xlink="http://www.w3.org/1999/xlink">
    <g id="Sydney-logo" stroke="none" stroke-width="1" fill="none" fill-rule="evenodd">
        <g id="Desktop" transform="translate(-90.000000, -460.000000)" fill="#FFFFFF" fill-rule="nonzero">
            <g id="Group" transform="translate(62.000000, 278.000000)">
                <g id="Group-2" transform="translate(28.000000, 0.000000)">
                    <g id="Group-3" transform="translate(0.000000, 182.000000)">
                        <g id="white-heart-shape">
                            <rect id="Rectangle" x="5.27446301" y="0" width="10.8591885" height="5.27446301"></rect>
                            <rect id="Rectangle" x="16.1336516" y="5.27446301" width="5.27446301" height="5.27446301"></rect>
                            <rect id="Rectangle" x="21.4081146" y="0" width="10.8591885" height="5.27446301"></rect>
                            <rect id="Rectangle" x="32.2673031" y="5.27446301" width="5.27446301" height="10.548926"></rect>
                            <rect id="Rectangle" x="0" y="5.27446301" width="5.27446301" height="10.548926"></rect>
                            <rect id="Rectangle" x="26.9928401" y="16.1336516" width="5.27446301" height="5.27446301"></rect>
                            <rect id="Rectangle" x="16.1336516" y="26.6825776" width="5.27446301" height="5.27446301"></rect>
                            <rect id="Rectangle" x="21.4081146" y="21.4081146" width="5.27446301" height="5.27446301"></rect>
                            <rect id="Rectangle" x="5.27446301" y="16.1336516" width="5.27446301" height="5.27446301"></rect>
                            <rect id="Rectangle" x="10.8591885" y="21.4081146" width="5.27446301" height="5.27446301"></rect>
                        </g>
                        <path d="M56.6464916,6.47579952 C57.5499807,6.47579952 58.3752707,6.59307759 59.1223866,6.82763723 C59.8695025,7.06219688 60.5123601,7.40968744 61.0509785,7.87011933 C61.589597,8.33055123 62.002242,8.90825428 62.288926,9.60324582 C62.57561,10.2982374 62.7189499,11.1061529 62.7189499,12.0270167 C62.7189499,13.4691242 62.3801466,14.6245303 61.7025298,15.4932697 C61.0249131,16.3620091 60.1040631,16.9614303 58.9399523,17.2915513 L63.5789976,24.5107399 L60.5557995,24.5107399 L56.2294988,17.5782339 L51.9292601,17.5782339 L51.9292601,24.5107399 L49.2709308,24.5107399 L49.2709308,6.47579952 L56.6464916,6.47579952 Z M51.9292601,15.2847733 L56.6986158,15.2847733 C57.7411031,15.2847733 58.5837677,15.0241554 59.2266348,14.5029117 C59.869502,13.981668 60.1909308,13.1737525 60.1909308,12.0791408 C60.1909308,10.9845291 59.869502,10.1809572 59.2266348,9.66840095 C58.5837677,9.15584469 57.7411031,8.89957041 56.6986158,8.89957041 L51.9292601,8.89957041 L51.9292601,15.2847733 Z M66.1852029,11.8445823 C66.6890717,11.462337 67.3493038,11.1235337 68.1659189,10.8281623 C68.9825339,10.5327909 69.9641947,10.3851074 71.1109308,10.3851074 C71.8927963,10.3851074 72.6094955,10.4763237 73.2610501,10.6587589 C73.9126047,10.8411942 74.4772768,11.1409048 74.9550835,11.5578998 C75.4328902,11.9748947 75.8020989,12.5265359 76.0627208,13.2128401 C76.3233426,13.8991442 76.4536516,14.7461525 76.4536516,15.7538902 L76.4536516,24.5107399 L74.1601909,24.5107399 L74.1601909,23.5203819 C72.9787053,24.3022473 71.6234921,24.6931742 70.0945107,24.6931742 C69.3995192,24.6931742 68.752318,24.6063016 68.1528878,24.4325537 C67.5534576,24.2588058 67.0322218,23.9895006 66.5891647,23.6246301 C66.1461076,23.2597595 65.7942734,22.7993345 65.5336516,22.2433413 C65.2730297,21.6873481 65.1427208,21.027116 65.1427208,20.2626253 C65.1427208,19.5155094 65.2730297,18.8509337 65.5336516,18.2688783 C65.7942734,17.6868229 66.1591385,17.2046797 66.6282578,16.8224344 C67.097377,16.440189 67.6533619,16.1491657 68.2962291,15.9493556 C68.9390963,15.7495455 69.6427647,15.649642 70.4072554,15.649642 C71.015373,15.649642 71.6321687,15.7104529 72.2576611,15.8320764 C72.8831535,15.9536999 73.4738874,16.1361324 74.0298807,16.3793795 L74.0298807,15.9102625 C74.0298807,15.3021449 73.9560389,14.79394 73.8083532,14.3856325 C73.6606675,13.9773249 73.4478296,13.6515525 73.1698329,13.4083055 C72.8918363,13.1650584 72.553033,12.9913132 72.1534129,12.8870644 C71.7537928,12.7828157 71.3107423,12.7306921 70.8242482,12.7306921 C70.0945071,12.7306921 69.4299314,12.826252 68.8305012,13.0173747 C68.231071,13.2084974 67.6794297,13.4778026 67.1755609,13.8252983 L66.1852029,11.8445823 Z M70.6418138,22.6342721 C71.1978071,22.6342721 71.7755101,22.564774 72.3749403,22.4257757 C72.9743705,22.2867773 73.5260118,22.0869703 74.0298807,21.8263484 L74.0298807,17.9952267 C73.5607614,17.8214788 73.0612437,17.6911699 72.5313126,17.6042959 C72.0013816,17.517422 71.4931767,17.4739857 71.0066826,17.4739857 C70.0163196,17.4739857 69.1823423,17.6868236 68.5047255,18.112506 C67.8271088,18.5381883 67.4883055,19.2114512 67.4883055,20.132315 C67.4883055,20.5840595 67.5708345,20.9662992 67.735895,21.2790453 C67.9009555,21.5917915 68.1268243,21.8480658 68.4135084,22.0478759 C68.7001924,22.247686 69.034652,22.3953695 69.4168974,22.4909308 C69.7991427,22.5864921 70.2074441,22.6342721 70.6418138,22.6342721 Z M82.7867303,10.7239141 L82.7867303,24.5107399 L80.3108353,24.5107399 L80.3108353,10.7239141 L82.7867303,10.7239141 Z M81.5357518,5.45937947 C81.9527467,5.45937947 82.2958936,5.59403207 82.5652029,5.86334129 C82.8345121,6.13265051 82.9691647,6.49317197 82.9691647,6.94491647 C82.9691647,7.37928618 82.8345121,7.735464 82.5652029,8.01346062 C82.2958936,8.29145724 81.9527467,8.43045346 81.5357518,8.43045346 C81.1187569,8.43045346 80.7799536,8.29145724 80.5193317,8.01346062 C80.2587099,7.735464 80.128401,7.37928618 80.128401,6.94491647 C80.128401,6.49317197 80.2587099,6.13265051 80.5193317,5.86334129 C80.7799536,5.59403207 81.1187569,5.45937947 81.5357518,5.45937947 Z M89.2240573,5.25088305 L89.2240573,24.5107399 L86.7481623,24.5107399 L86.7481623,6.08486874 L89.2240573,5.25088305 Z M101.733842,14.3465394 C101.282098,13.8600453 100.68702,13.4474003 99.9485919,13.1085919 C99.2101634,12.7697835 98.3979042,12.6003819 97.51179,12.6003819 C96.6256758,12.6003819 95.974131,12.7654399 95.557136,13.0955609 C95.1401411,13.4256818 94.9316468,13.825296 94.9316468,14.2944153 C94.9316468,14.641911 95.0358939,14.9285908 95.2443914,15.154463 C95.4528889,15.3803353 95.7395686,15.5714551 96.1044391,15.7278282 C96.4171853,15.8668265 96.7690195,15.9884482 97.1599523,16.0926969 C97.550885,16.1969456 97.9548428,16.3098801 98.3718377,16.4315036 C98.7888326,16.5531271 99.2145086,16.6834361 99.6488783,16.8224344 C100.083248,16.9614327 100.491549,17.1264907 100.873795,17.3176134 C101.586161,17.6651091 102.111741,18.0864414 102.450549,18.5816229 C102.789357,19.0768044 102.958759,19.7240056 102.958759,20.5232458 C102.958759,21.3398609 102.802388,22.0218111 102.489642,22.5691169 C102.176896,23.1164228 101.759907,23.5594732 101.238663,23.8982816 C100.71742,24.23709 100.126686,24.4803334 99.4664439,24.6280191 C98.8062019,24.7757048 98.1372826,24.8495465 97.4596659,24.8495465 C96.8341735,24.8495465 96.2390959,24.797423 95.6744153,24.6931742 C95.1097346,24.5889255 94.5928424,24.4455856 94.1237232,24.2631504 C93.6546039,24.0807151 93.2332716,23.8722207 92.8597136,23.6376611 C92.4861557,23.4031015 92.1690705,23.1555144 91.9084487,22.8948926 L92.8727446,20.8099284 C93.3766135,21.2790477 94.0281583,21.6873491 94.8273986,22.0348449 C95.6266388,22.3823406 96.4953652,22.5560859 97.4336038,22.5560859 C98.319718,22.5560859 99.0537918,22.3823406 99.6358473,22.0348449 C100.217903,21.6873491 100.508926,21.1834878 100.508926,20.5232458 C100.508926,20.1410005 100.391648,19.828259 100.157088,19.5850119 C99.9225287,19.3417649 99.5446327,19.115896 99.023389,18.9073986 C98.6585185,18.7510255 98.2675916,18.6120292 97.8505967,18.4904057 C97.4336017,18.3687822 97.0209567,18.2515041 96.6126492,18.138568 C96.2043416,18.0256319 95.8134148,17.9083538 95.4398568,17.7867303 C95.0662988,17.6651068 94.7318392,17.5347978 94.4364678,17.3957995 C93.845725,17.1004281 93.3722691,16.7095012 93.0160859,16.2230072 C92.6599028,15.7365131 92.4818138,15.1110301 92.4818138,14.3465394 C92.4818138,13.721047 92.6121228,13.1607185 92.8727446,12.665537 C93.1333665,12.1703555 93.4895443,11.7533668 93.9412888,11.4145585 C94.3930333,11.0757501 94.9359873,10.8194758 95.5701671,10.6457279 C96.2043468,10.47198 96.8862971,10.3851074 97.6160382,10.3851074 C98.7975238,10.3851074 99.8139337,10.5762272 100.665298,10.9584726 C101.516663,11.3407179 102.176895,11.7577066 102.646014,12.2094511 L101.733842,14.3465394 Z M127.326778,14.8938425 L127.326778,17.0048687 C127.326778,18.1863544 127.166064,19.2548878 126.84463,20.2105012 C126.523196,21.1661146 126.058428,21.9914046 125.45031,22.6863962 C124.842193,23.3813877 124.090744,23.9156545 123.195943,24.2892124 C122.301141,24.6627704 121.280388,24.8495465 120.133652,24.8495465 C118.969541,24.8495465 117.896664,24.6497395 116.914988,24.2501193 C115.933313,23.8504992 115.081961,23.2597652 114.360907,22.4778998 C113.639853,21.6960343 113.079525,20.7274043 112.679905,19.5719809 C112.280284,18.4165575 112.080477,17.0743752 112.080477,15.5453938 C112.080477,14.0164124 112.284628,12.6655429 112.692936,11.4927446 C113.101243,10.3199464 113.661572,9.33828558 114.373938,8.5477327 C115.086304,7.75717982 115.937656,7.1577586 116.928019,6.74945107 C117.918382,6.34114354 118.995603,6.13699284 120.159714,6.13699284 C121.810319,6.13699284 123.174219,6.51054519 124.251456,7.2576611 C125.328693,8.00477701 126.153983,8.96037604 126.727351,10.1244869 L124.798759,11.5839618 C124.29489,10.6457232 123.673751,9.91599306 122.935322,9.3947494 C122.196894,8.87350575 121.263013,8.61288783 120.133652,8.61288783 C118.517796,8.61288783 117.214707,9.19493451 116.224344,10.3590453 C115.233981,11.5231562 114.738807,13.2432344 114.738807,15.5193317 C114.738807,17.795429 115.233981,19.5111637 116.224344,20.6665871 C117.214707,21.8220106 118.517796,22.3997136 120.133652,22.3997136 C121.488885,22.3997136 122.592168,21.9653504 123.443532,21.096611 C124.294897,20.2278716 124.737947,18.924782 124.772697,17.1873031 L120.680955,17.1873031 L120.680955,14.8938425 L127.326778,14.8938425 Z M133.268926,10.7239141 L133.268926,24.5107399 L130.793031,24.5107399 L130.793031,10.7239141 L133.268926,10.7239141 Z M132.017947,5.45937947 C132.434942,5.45937947 132.778089,5.59403207 133.047399,5.86334129 C133.316708,6.13265051 133.45136,6.49317197 133.45136,6.94491647 C133.45136,7.37928618 133.316708,7.735464 133.047399,8.01346062 C132.778089,8.29145724 132.434942,8.43045346 132.017947,8.43045346 C131.600953,8.43045346 131.262149,8.29145724 131.001527,8.01346062 C130.740906,7.735464 130.610597,7.37928618 130.610597,6.94491647 C130.610597,6.49317197 130.740906,6.13265051 131.001527,5.86334129 C131.262149,5.59403207 131.600953,5.45937947 132.017947,5.45937947 Z M145.048974,13.4083055 C144.805727,13.1650584 144.519047,12.9913132 144.188926,12.8870644 C143.858805,12.7828157 143.485253,12.7306921 143.068258,12.7306921 C142.355891,12.7306921 141.717378,12.9000938 141.152697,13.2389021 C140.588016,13.5777105 140.105873,14.233599 139.706253,15.2065871 L139.706253,24.5107399 L137.230358,24.5107399 L137.230358,10.7239141 L139.575943,10.7239141 L139.575943,12.3918854 C140.566306,11.0540267 141.88677,10.3851074 143.537375,10.3851074 C144.145492,10.3851074 144.640666,10.4676364 145.022912,10.6326969 C145.405157,10.7977574 145.717899,10.9932208 145.961146,11.2190931 L145.048974,13.4083055 Z M150.886874,5.25088305 L150.886874,24.5107399 L148.410979,24.5107399 L148.410979,6.08486874 L150.886874,5.25088305 Z M163.396659,14.3465394 C162.944914,13.8600453 162.349837,13.4474003 161.611408,13.1085919 C160.87298,12.7697835 160.06072,12.6003819 159.174606,12.6003819 C158.288492,12.6003819 157.636947,12.7654399 157.219952,13.0955609 C156.802957,13.4256818 156.594463,13.825296 156.594463,14.2944153 C156.594463,14.641911 156.69871,14.9285908 156.907208,15.154463 C157.115705,15.3803353 157.402385,15.5714551 157.767255,15.7278282 C158.080002,15.8668265 158.431836,15.9884482 158.822768,16.0926969 C159.213701,16.1969456 159.617659,16.3098801 160.034654,16.4315036 C160.451649,16.5531271 160.877325,16.6834361 161.311695,16.8224344 C161.746064,16.9614327 162.154366,17.1264907 162.536611,17.3176134 C163.248977,17.6651091 163.774557,18.0864414 164.113365,18.5816229 C164.452174,19.0768044 164.621575,19.7240056 164.621575,20.5232458 C164.621575,21.3398609 164.465204,22.0218111 164.152458,22.5691169 C163.839712,23.1164228 163.422723,23.5594732 162.90148,23.8982816 C162.380236,24.23709 161.789502,24.4803334 161.12926,24.6280191 C160.469018,24.7757048 159.800099,24.8495465 159.122482,24.8495465 C158.49699,24.8495465 157.901912,24.797423 157.337232,24.6931742 C156.772551,24.5889255 156.255659,24.4455856 155.786539,24.2631504 C155.31742,24.0807151 154.896088,23.8722207 154.52253,23.6376611 C154.148972,23.4031015 153.831887,23.1555144 153.571265,22.8948926 L154.535561,20.8099284 C155.03943,21.2790477 155.690975,21.6873491 156.490215,22.0348449 C157.289455,22.3823406 158.158181,22.5560859 159.09642,22.5560859 C159.982534,22.5560859 160.716608,22.3823406 161.298663,22.0348449 C161.880719,21.6873491 162.171742,21.1834878 162.171742,20.5232458 C162.171742,20.1410005 162.054464,19.828259 161.819905,19.5850119 C161.585345,19.3417649 161.207449,19.115896 160.686205,18.9073986 C160.321335,18.7510255 159.930408,18.6120292 159.513413,18.4904057 C159.096418,18.3687822 158.683773,18.2515041 158.275465,18.138568 C157.867158,18.0256319 157.476231,17.9083538 157.102673,17.7867303 C156.729115,17.6651068 156.394655,17.5347978 156.099284,17.3957995 C155.508541,17.1004281 155.035085,16.7095012 154.678902,16.2230072 C154.322719,15.7365131 154.14463,15.1110301 154.14463,14.3465394 C154.14463,13.721047 154.274939,13.1607185 154.535561,12.665537 C154.796183,12.1703555 155.152361,11.7533668 155.604105,11.4145585 C156.05585,11.0757501 156.598804,10.8194758 157.232983,10.6457279 C157.867163,10.47198 158.549113,10.3851074 159.278854,10.3851074 C160.46034,10.3851074 161.47675,10.5762272 162.328115,10.9584726 C163.179479,11.3407179 163.839711,11.7577066 164.308831,12.2094511 L163.396659,14.3465394 Z M174.890024,19.8456325 C175.515516,20.5927484 176.301714,21.2008568 177.24864,21.6699761 C178.195566,22.1390954 179.320566,22.3736516 180.623675,22.3736516 C181.978909,22.3736516 183.064817,22.1043464 183.881432,21.5657279 C184.698047,21.0271095 185.106348,20.253943 185.106348,19.2462053 C185.106348,18.5685885 184.923916,18.0560399 184.559045,17.7085442 C184.194175,17.3610484 183.725063,17.0830559 183.151695,16.8745585 C182.7347,16.7181854 182.278618,16.5835328 181.783437,16.4705967 C181.288255,16.3576605 180.784394,16.2447261 180.271838,16.13179 C179.759281,16.0188539 179.242389,15.8972322 178.721146,15.7669212 C178.199902,15.6366103 177.696041,15.4758959 177.209547,15.2847733 C176.253933,14.9025279 175.502485,14.4030102 174.955179,13.7862053 C174.407873,13.1694003 174.134224,12.3397665 174.134224,11.2972792 C174.134224,10.5675381 174.277564,9.89861879 174.564248,9.29050119 C174.850932,8.68238359 175.267921,8.15680412 175.815227,7.71374702 C176.362533,7.27068991 177.040139,6.92319935 177.848067,6.67126492 C178.655994,6.41933048 179.572501,6.29336516 180.597613,6.29336516 C181.466353,6.29336516 182.248207,6.37589416 182.943198,6.54095465 C183.63819,6.70601515 184.259329,6.92754038 184.806635,7.20553699 C185.353941,7.48353361 185.83174,7.79193148 186.240048,8.13073986 C186.648355,8.46954823 186.982815,8.81269516 187.243437,9.16019093 L185.393031,10.8021002 C184.871787,10.2113574 184.211555,9.71183975 183.412315,9.30353222 C182.613075,8.89522469 181.640101,8.69107399 180.493365,8.69107399 C179.31188,8.69107399 178.382342,8.91694285 177.704726,9.36868735 C177.027109,9.82043185 176.688305,10.4285403 176.688305,11.193031 C176.688305,11.766399 176.862051,12.2051059 177.209547,12.5091647 C177.557042,12.8132235 177.956656,13.0608105 178.408401,13.2519332 C178.825396,13.4083063 179.281477,13.5429589 179.776659,13.655895 C180.27184,13.7688311 180.780045,13.8774219 181.301289,13.9816706 C181.822532,14.0859194 182.348112,14.2031974 182.878043,14.3335084 C183.407974,14.4638193 183.924866,14.6245337 184.428735,14.8156563 C184.863105,14.9894042 185.27575,15.1935549 185.666683,15.4281146 C186.057615,15.6626742 186.400762,15.9580412 186.696134,16.3142243 C186.991505,16.6704075 187.230405,17.0830525 187.41284,17.5521718 C187.595275,18.0212911 187.686492,18.577276 187.686492,19.2201432 C187.686492,20.141007 187.504059,20.9445789 187.139189,21.6308831 C186.774318,22.3171872 186.266113,22.886203 185.614558,23.3379475 C184.963004,23.789692 184.198525,24.1328389 183.321098,24.3673986 C182.443671,24.6019582 181.492416,24.7192363 180.467303,24.7192363 C178.660325,24.7192363 177.127023,24.4064948 175.867351,23.7810024 C174.607679,23.15551 173.621674,22.3823435 172.909308,21.4614797 L174.890024,19.8456325 Z M191.569737,10.7239141 L195.505107,21.2008592 L199.72716,10.7239141 L202.229117,10.7239141 L194.723246,29.3582816 L192.221289,29.3582816 L194.306253,24.1719332 L189.015656,10.7239141 L191.569737,10.7239141 Z M215.051647,5.25088305 L215.051647,24.5107399 L212.732124,24.5107399 L212.732124,22.7385203 C212.28038,23.3466379 211.70702,23.8504992 211.012029,24.2501193 C210.317037,24.6497395 209.491747,24.8495465 208.536134,24.8495465 C207.58052,24.8495465 206.772605,24.6410522 206.112363,24.2240573 C205.452121,23.8070624 204.91351,23.2597647 204.496516,22.582148 C204.079521,21.9045312 203.77981,21.1313647 203.597375,20.2626253 C203.414939,19.3938859 203.323723,18.5164722 203.323723,17.630358 C203.323723,16.7442438 203.414939,15.8668301 203.597375,14.9980907 C203.77981,14.1293513 204.079521,13.3518411 204.496516,12.665537 C204.91351,11.9792328 205.452121,11.4275916 206.112363,11.0105967 C206.772605,10.5936017 207.58052,10.3851074 208.536134,10.3851074 C209.439623,10.3851074 210.22582,10.5675399 210.894749,10.9324105 C211.563679,11.2972811 212.124007,11.7577061 212.575752,12.3136993 L212.575752,6.08486874 L215.051647,5.25088305 Z M209.161623,22.5560859 C209.978238,22.5560859 210.660188,22.3519352 211.207494,21.9436277 C211.7548,21.5353202 212.210881,21.0010534 212.575752,20.3408115 L212.575752,14.8938425 C212.210881,14.2509753 211.7548,13.7167086 211.207494,13.2910263 C210.660188,12.8653439 209.969551,12.652506 209.135561,12.652506 C208.475319,12.652506 207.928021,12.7915022 207.493652,13.0694988 C207.059282,13.3474954 206.703104,13.7167041 206.425107,14.177136 C206.147111,14.6375679 205.951647,15.167491 205.838711,15.7669212 C205.725775,16.3663514 205.669308,16.9874908 205.669308,17.630358 C205.669308,18.2732252 205.725775,18.8900209 205.838711,19.4807637 C205.951647,20.0715065 206.147111,20.597086 206.425107,21.0575179 C206.703104,21.5179498 207.063625,21.8828149 207.506683,22.1521241 C207.94974,22.4214333 208.501381,22.5560859 209.161623,22.5560859 Z M221.358663,10.7239141 L221.358663,12.4179475 C222.401151,11.062714 223.851924,10.3851074 225.711026,10.3851074 C226.406018,10.3851074 227.044532,10.4850109 227.626587,10.684821 C228.208643,10.8846311 228.70816,11.2017162 229.125155,11.6360859 C229.54215,12.0704556 229.863579,12.6307842 230.089451,13.3170883 C230.315323,14.0033925 230.428258,14.8243389 230.428258,15.7799523 L230.428258,24.5107399 L227.952363,24.5107399 L227.952363,16.0405728 C227.952363,14.8417124 227.678714,13.9903605 227.131408,13.4864916 C226.584102,12.9826228 225.850028,12.7306921 224.929165,12.7306921 C224.199424,12.7306921 223.539191,12.9044374 222.948449,13.2519332 C222.357706,13.5994289 221.871219,14.2335992 221.488974,15.154463 L221.488974,24.5107399 L219.013079,24.5107399 L219.013079,10.7239141 L221.358663,10.7239141 Z M236.109785,18.4643437 C236.179284,19.17671 236.326968,19.7935057 236.55284,20.3147494 C236.778712,20.8359931 237.061048,21.2660126 237.399857,21.604821 C237.738665,21.9436294 238.120905,22.19556 238.546587,22.3606205 C238.972269,22.525681 239.410976,22.60821 239.862721,22.60821 C240.540338,22.60821 241.135415,22.4518393 241.647971,22.1390931 C242.160528,21.8263469 242.573173,21.4441073 242.885919,20.9923628 L244.527828,22.4257757 C244.336705,22.6863975 244.097806,22.9600463 243.811122,23.2467303 C243.524438,23.5334143 243.185634,23.7940322 242.794702,24.0285919 C242.403769,24.2631515 241.956375,24.458615 241.452506,24.6149881 C240.948637,24.7713612 240.383965,24.8495465 239.758473,24.8495465 C238.941857,24.8495465 238.168691,24.6975194 237.43895,24.3934606 C236.709209,24.0894018 236.075038,23.6333205 235.53642,23.0252029 C234.997802,22.4170853 234.572126,21.6569497 234.259379,20.7447733 C233.946633,19.8325969 233.790263,18.768407 233.790263,17.5521718 C233.790263,16.4054358 233.933602,15.3846823 234.220286,14.4898807 C234.50697,13.5950791 234.906585,12.8436307 235.419141,12.2355131 C235.931697,11.6273955 236.544149,11.1669705 237.256516,10.8542243 C237.968882,10.5414781 238.750736,10.3851074 239.6021,10.3851074 C240.453465,10.3851074 241.235319,10.5414781 241.947685,10.8542243 C242.660051,11.1669705 243.276847,11.6273955 243.798091,12.2355131 C244.319334,12.8436307 244.723292,13.5950791 245.009976,14.4898807 C245.29666,15.3846823 245.44,16.4054358 245.44,17.5521718 C245.44,17.7259197 245.435656,17.8866341 245.426969,18.0343198 C245.418282,18.1820055 245.405251,18.3253454 245.387876,18.4643437 L236.109785,18.4643437 Z M239.628162,12.6264439 C238.672549,12.6264439 237.882008,12.9695908 237.256516,13.655895 C236.631023,14.3421991 236.248784,15.3282036 236.109785,16.6139379 L243.120477,16.6139379 C242.981479,15.293454 242.599239,14.2987623 241.973747,13.6298329 C241.348255,12.9609036 240.566401,12.6264439 239.628162,12.6264439 Z M249.088687,10.7239141 L253.024057,21.2008592 L257.24611,10.7239141 L259.748067,10.7239141 L252.242196,29.3582816 L249.740239,29.3582816 L251.825203,24.1719332 L246.534606,10.7239141 L249.088687,10.7239141 Z" id="RailsGirlsSydney"></path>
                    </g>
                </g>
            </g>
        </g>
    </g>
</svg>